# xmcd
#
# Track frame offsets: 
#        182
#        14098
#        28808
#        43185
#        54870
#        68795
#        82298
#        92453
#        105103
#        115923
#        126818
#        138863
#        148715
#        160593
#        170593
#        182133
#        195020
#        206923
#        217298
#        230660
#
# Disc length: 3223 seconds
#
# Revision: 2
# Processed by: cddbd v1.5.2PL0 Copyright (c) Steve Scherf et al.
# Submitted via: ExactAudioCopyFreeDBPlugin 1.0
#
DISCID=1e0c9514
DTITLE=LaVern Baker - Soul on Fire:  The Best of LaVern Baker
DYEAR=1991
DGENRE=Rhythm and Blues
TTITLE0=Soul on Fire
TTITLE1=Tomorrow Night
TTITLE2=Tweedle Dee
TTITLE3=That's All I Need
TTITLE4=Bop-Ting-A-Ling
TTITLE5=Play it Fair
TTITLE6=Jim Dandy
TTITLE7=My Happiness Forever
TTITLE8=Get Up, Get Up
TTITLE9=Still
TTITLE10=I Can't Love You Enough
TTITLE11=Jim Dandy Got Married
TTITLE12=I Cried a Tear
TTITLE13=Whipper Snapper
TTITLE14=I Waited Too Long
TTITLE15=Shake a Hand
TTITLE16=How Often
TTITLE17=You Said
TTITLE18=Saved
TTITLE19=See See Rider
EXTD=
EXTT0=
EXTT1=
EXTT2=
EXTT3=
EXTT4=
EXTT5=
EXTT6=
EXTT7=
EXTT8=
EXTT9=
EXTT10=
EXTT11=
EXTT12=
EXTT13=
EXTT14=
EXTT15=
EXTT16=
EXTT17=
EXTT18=
EXTT19=
PLAYORDER=
